<svg width="602.7840576171875px" height="121.45453796386718px" xmlns="http://www.w3.org/2000/svg" viewBox="-51.39202880859375 14.272731018066409 602.7840576171875 121.45453796386718" style="background:#596886" preserveAspectRatio="xMidYMid"><defs><filter id="editing-hover" x="-100%" y="-100%" width="300%" height="300%"><feFlood flood-color="#052b4a" result="flood"></feFlood><feComposite operator="in" in2="SourceAlpha" in="flood" result="shadow"></feComposite><feOffset dx="-4" dy="-4" in="SourceGraphic" result="offset-1"></feOffset><feOffset dx="4" dy="4" in="shadow" result="offset-2"></feOffset><feMerge><feMergeNode in="offset-2"></feMergeNode><feMergeNode in="offset-1"></feMergeNode></feMerge></filter></defs><g filter="url(#editing-hover)"><g transform="translate(37.4900267124176, 99)"><path d="M14.14 0L0.51 0L7.81-38.91L8.51-42.24L22.21-42.24L14.14 0ZM40.13-3.78L40.13-3.78L40.13-3.78Q38.40 1.28 31.74 1.28L31.74 1.28L31.74 1.28Q26.82 1.28 23.42-4.61L23.42-4.61L23.42-4.61Q19.97-10.50 19.33-20.10L19.33-20.10L19.33-20.10Q26.37-32.96 31.23-38.27L31.23-38.27L31.23-38.27Q35.90-43.33 40.77-43.33L40.77-43.33L40.77-43.33Q43.39-43.33 45.28-41.92L45.28-41.92L45.28-41.92Q47.17-40.51 47.62-38.27L47.62-38.27L47.62-38.27Q45.44-37.38 44.42-36.67L44.42-36.67L44.42-36.67Q41.86-34.75 38.40-30.46L38.40-30.46L32.58-23.49L32.58-23.49Q31.17-21.82 30.59-21.06L30.59-21.06L30.59-21.06Q31.55-15.68 34.43-10.37L34.43-10.37L34.43-10.37Q37.18-5.31 40.13-3.78ZM46.56-1.92L46.56-1.92L46.56-1.92Q45.06-3.58 44.38-6.21L44.38-6.21L44.38-6.21Q43.71-8.83 43.71-13.12L43.71-13.12L43.71-13.12Q43.71-17.41 45.18-21.31L45.18-21.31L45.18-21.31Q46.66-25.22 49.34-28.03L49.34-28.03L49.34-28.03Q54.85-33.92 63.94-33.92L63.94-33.92L63.94-33.92Q67.20-33.92 69.57-32.83L69.57-32.83L80.51-33.92L75.78-8.96L75.78-8.96Q75.58-8.19 75.58-6.78L75.58-6.78L75.58-6.78Q75.58-5.38 76.45-4.48L76.45-4.48L76.45-4.48Q77.31-3.58 78.59-3.46L78.59-3.46L78.59-3.46Q77.95-1.28 75.62 0L75.62 0L75.62 0Q73.28 1.28 70.66 1.28L70.66 1.28L70.66 1.28Q68.03 1.28 66.27 0.29L66.27 0.29L66.27 0.29Q64.51-0.70 64-2.37L64-2.37L64-2.37Q62.98-0.77 60.80 0.26L60.80 0.26L60.80 0.26Q58.62 1.28 55.71 1.28L55.71 1.28L55.71 1.28Q52.80 1.28 50.43 0.51L50.43 0.51L50.43 0.51Q48.06-0.26 46.56-1.92ZM60.06-27.90L60.06-27.90L60.06-27.90Q59.33-26.75 58.69-24.80L58.69-24.80L58.69-24.80Q58.05-22.85 56.99-17.63L56.99-17.63L56.99-17.63Q55.94-12.42 55.94-8.70L55.94-8.70L55.94-8.70Q55.94-4.99 56.51-3.90L56.51-3.90L56.51-3.90Q57.09-2.82 58.11-2.82L58.11-2.82L58.11-2.82Q60.16-2.82 61.66-4.77L61.66-4.77L61.66-4.77Q63.17-6.72 63.74-10.18L63.74-10.18L67.14-28.93L67.14-28.93Q65.79-30.08 64.22-30.08L64.22-30.08L64.22-30.08Q62.66-30.08 61.73-29.57L61.73-29.57L61.73-29.57Q60.80-29.06 60.06-27.90ZM104-17.98L104-17.98L104-17.98Q106.30-22.08 106.30-26.24L106.30-26.24L106.30-26.24Q106.30-28.99 104.32-28.99L104.32-28.99L104.32-28.99Q102.78-28.99 101.18-26.37L101.18-26.37L101.18-26.37Q99.52-23.74 99.01-20.35L99.01-20.35L95.68 0L82.43 1.28L88.96-32.64L99.52-33.92L98.37-27.46L98.37-27.46Q101.50-33.92 108.54-33.92L108.54-33.92L108.54-33.92Q112.26-33.92 114.27-32L114.27-32L114.27-32Q116.29-30.08 116.29-26.14L116.29-26.14L116.29-26.14Q116.29-22.21 113.70-19.71L113.70-19.71L113.70-19.71Q111.10-17.22 106.69-17.22L106.69-17.22L106.69-17.22Q104.77-17.22 104-17.98ZM118.34-6.40L118.34-6.40L118.34-6.40Q118.34-8.13 119.23-12.48L119.23-12.48L122.62-29.76L118.85-29.76L119.10-31.68L119.10-31.68Q126.78-33.98 134.21-39.62L134.21-39.62L137.28-39.62L135.74-32.64L140.74-32.64L140.16-29.76L135.23-29.76L131.97-12.48L131.97-12.48Q131.14-8.51 131.14-7.17L131.14-7.17L131.14-7.17Q131.14-4.10 133.82-3.46L133.82-3.46L133.82-3.46Q133.18-1.28 130.88 0L130.88 0L130.88 0Q128.58 1.28 125.31 1.28L125.31 1.28L125.31 1.28Q122.05 1.28 120.19-0.77L120.19-0.77L120.19-0.77Q118.34-2.82 118.34-6.40ZM155.78-3.52L155.78-3.52L155.78-3.52Q153.79 1.28 147.46 1.28L147.46 1.28L147.46 1.28Q144.19 1.28 142.14-0.96L142.14-0.96L142.14-0.96Q140.42-2.94 140.42-4.93L140.42-4.93L140.42-4.93Q140.42-10.11 142.78-20.22L142.78-20.22L145.15-32.64L158.14-33.92L154.24-13.70L154.24-13.70Q153.15-8.96 153.15-7.30L153.15-7.30L153.15-7.30Q153.15-3.65 155.78-3.52ZM146.30-41.54L146.30-41.54L146.30-41.54Q146.30-44.03 148.38-45.38L148.38-45.38L148.38-45.38Q150.46-46.72 153.47-46.72L153.47-46.72L153.47-46.72Q156.48-46.72 158.30-45.38L158.30-45.38L158.30-45.38Q160.13-44.03 160.13-41.54L160.13-41.54L160.13-41.54Q160.13-39.04 158.11-37.76L158.11-37.76L158.11-37.76Q156.10-36.48 153.09-36.48L153.09-36.48L153.09-36.48Q150.08-36.48 148.19-37.76L148.19-37.76L148.19-37.76Q146.30-39.04 146.30-41.54ZM177.73-30.34L177.73-30.34L177.73-30.34Q181.18-33.92 188.48-33.92L188.48-33.92L188.48-33.92Q192.51-33.92 194.72-31.78L194.72-31.78L194.72-31.78Q196.93-29.63 196.93-25.70L196.93-25.70L196.93-25.70Q196.93-21.76 194.72-18.98L194.72-18.98L194.72-18.98Q192.51-16.19 188.42-15.04L188.42-15.04L188.42-15.04Q188.74-13.76 189.18-12.42L189.18-12.42L190.08-9.86L190.08-9.86Q191.30-6.59 192.26-5.44L192.26-5.44L192.26-5.44Q193.22-4.29 194.50-3.90L194.50-3.90L194.50-3.90Q193.79-1.28 191.23 0.13L191.23 0.13L191.23 0.13Q189.18 1.28 186.37 1.28L186.37 1.28L186.37 1.28Q178.11 1.28 177.02-11.46L177.02-11.46L177.02-11.46Q176.83-13.25 176.83-15.04L176.83-15.04L176.83-15.04Q180.03-15.94 182.27-18.94L182.27-18.94L182.27-18.94Q184.51-21.95 184.51-25.47L184.51-25.47L184.51-25.47Q184.51-28.99 182.02-28.99L182.02-28.99L182.02-28.99Q180.22-28.99 178.82-27.01L178.82-27.01L178.82-27.01Q177.41-25.02 176.77-21.63L176.77-21.63L172.54 0L159.62 1.28L168.58-44.80L181.44-46.08L179.97-38.46L179.97-38.46Q179.01-33.09 177.73-30.34ZM218.50 0L211.14 0L222.72-42.24L236.10-42.24L239.04-18.11L250.94-42.24L262.14-42.24L263.30-10.62L263.30-10.62Q263.55-4.35 266.62-2.43L266.62-2.43L266.62-2.43Q265.92-1.15 263.87 0.06L263.87 0.06L263.87 0.06Q261.82 1.28 259.10 1.28L259.10 1.28L259.10 1.28Q256.38 1.28 254.78 0.51L254.78 0.51L254.78 0.51Q253.18-0.26 252.29-1.54L252.29-1.54L252.29-1.54Q250.69-3.84 250.69-8.26L250.69-8.26L250.69-28.03L238.08 0L230.14 0L225.66-28.74L218.50 0ZM272.16-1.92L272.16-1.92L272.16-1.92Q270.66-3.58 269.98-6.21L269.98-6.21L269.98-6.21Q269.31-8.83 269.31-13.12L269.31-13.12L269.31-13.12Q269.31-17.41 270.78-21.31L270.78-21.31L270.78-21.31Q272.26-25.22 274.94-28.03L274.94-28.03L274.94-28.03Q280.45-33.92 289.54-33.92L289.54-33.92L289.54-33.92Q292.80-33.92 295.17-32.83L295.17-32.83L306.11-33.92L301.38-8.96L301.38-8.96Q301.18-8.19 301.18-6.78L301.18-6.78L301.18-6.78Q301.18-5.38 302.05-4.48L302.05-4.48L302.05-4.48Q302.91-3.58 304.19-3.46L304.19-3.46L304.19-3.46Q303.55-1.28 301.22 0L301.22 0L301.22 0Q298.88 1.28 296.26 1.28L296.26 1.28L296.26 1.28Q293.63 1.28 291.87 0.29L291.87 0.29L291.87 0.29Q290.11-0.70 289.60-2.37L289.60-2.37L289.60-2.37Q288.58-0.77 286.40 0.26L286.40 0.26L286.40 0.26Q284.22 1.28 281.31 1.28L281.31 1.28L281.31 1.28Q278.40 1.28 276.03 0.51L276.03 0.51L276.03 0.51Q273.66-0.26 272.16-1.92ZM285.66-27.90L285.66-27.90L285.66-27.90Q284.93-26.75 284.29-24.80L284.29-24.80L284.29-24.80Q283.65-22.85 282.59-17.63L282.59-17.63L282.59-17.63Q281.54-12.42 281.54-8.70L281.54-8.70L281.54-8.70Q281.54-4.99 282.11-3.90L282.11-3.90L282.11-3.90Q282.69-2.82 283.71-2.82L283.71-2.82L283.71-2.82Q285.76-2.82 287.26-4.77L287.26-4.77L287.26-4.77Q288.77-6.72 289.34-10.18L289.34-10.18L292.74-28.93L292.74-28.93Q291.39-30.08 289.82-30.08L289.82-30.08L289.82-30.08Q288.26-30.08 287.33-29.57L287.33-29.57L287.33-29.57Q286.40-29.06 285.66-27.90ZM329.47-33.92L329.47-33.92L329.47-33.92Q331.78-33.92 333.57-33.41L333.57-33.41L333.57-33.41Q333.63-33.66 333.76-34.37L333.76-34.37L334.08-36.35L334.08-36.35Q334.34-37.63 334.72-39.74L334.72-39.74L335.74-44.80L348.48-46.08L341.38-8.96L341.38-8.96Q341.31-8.58 341.31-7.94L341.31-7.94L341.31-6.91L341.31-6.91Q341.31-5.50 342.02-4.45L342.02-4.45L342.02-4.45Q342.72-3.39 343.87-3.39L343.87-3.39L343.87-3.39Q342.59-0.38 338.69 0.90L338.69 0.90L338.69 0.90Q337.34 1.28 335.46 1.28L335.46 1.28L335.46 1.28Q333.57 1.28 331.84 0.29L331.84 0.29L331.84 0.29Q330.11-0.70 329.60-2.37L329.60-2.37L329.60-2.37Q328.58-0.70 326.53 0.29L326.53 0.29L326.53 0.29Q324.48 1.28 321.50 1.28L321.50 1.28L321.50 1.28Q318.53 1.28 316.06 0.51L316.06 0.51L316.06 0.51Q313.60-0.26 312.06-1.92L312.06-1.92L312.06-1.92Q309.25-5.18 309.25-12.61L309.25-12.61L309.25-12.61Q309.25-22.21 314.88-28.03L314.88-28.03L314.88-28.03Q320.51-33.92 329.47-33.92ZM329.02-30.08L329.02-30.08L329.02-30.08Q326.66-30.08 325.38-27.52L325.38-27.52L325.38-27.52Q324.10-24.96 322.78-18.62L322.78-18.62L322.78-18.62Q321.47-12.29 321.47-6.59L321.47-6.59L321.47-6.59Q321.47-2.69 323.78-2.69L323.78-2.69L323.78-2.69Q325.82-2.69 327.26-4.74L327.26-4.74L327.26-4.74Q328.70-6.78 329.28-10.18L329.28-10.18L332.74-28.93L332.74-28.93Q331.39-30.08 329.02-30.08ZM352.10-1.92L352.10-1.92L352.10-1.92Q350.59-3.58 349.92-6.21L349.92-6.21L349.92-6.21Q349.25-8.83 349.25-13.12L349.25-13.12L349.25-13.12Q349.25-17.41 350.72-21.31L350.72-21.31L350.72-21.31Q352.19-25.22 354.88-28.03L354.88-28.03L354.88-28.03Q360.38-33.92 369.47-33.92L369.47-33.92L369.47-33.92Q372.74-33.92 375.10-32.83L375.10-32.83L386.05-33.92L381.31-8.96L381.31-8.96Q381.12-8.19 381.12-6.78L381.12-6.78L381.12-6.78Q381.12-5.38 381.98-4.48L381.98-4.48L381.98-4.48Q382.85-3.58 384.13-3.46L384.13-3.46L384.13-3.46Q383.49-1.28 381.15 0L381.15 0L381.15 0Q378.82 1.28 376.19 1.28L376.19 1.28L376.19 1.28Q373.57 1.28 371.81 0.29L371.81 0.29L371.81 0.29Q370.05-0.70 369.54-2.37L369.54-2.37L369.54-2.37Q368.51-0.77 366.34 0.26L366.34 0.26L366.34 0.26Q364.16 1.28 361.25 1.28L361.25 1.28L361.25 1.28Q358.34 1.28 355.97 0.51L355.97 0.51L355.97 0.51Q353.60-0.26 352.10-1.92ZM365.60-27.90L365.60-27.90L365.60-27.90Q364.86-26.75 364.22-24.80L364.22-24.80L364.22-24.80Q363.58-22.85 362.53-17.63L362.53-17.63L362.53-17.63Q361.47-12.42 361.47-8.70L361.47-8.70L361.47-8.70Q361.47-4.99 362.05-3.90L362.05-3.90L362.05-3.90Q362.62-2.82 363.65-2.82L363.65-2.82L363.65-2.82Q365.70-2.82 367.20-4.77L367.20-4.77L367.20-4.77Q368.70-6.72 369.28-10.18L369.28-10.18L372.67-28.93L372.67-28.93Q371.33-30.08 369.76-30.08L369.76-30.08L369.76-30.08Q368.19-30.08 367.26-29.57L367.26-29.57L367.26-29.57Q366.34-29.06 365.60-27.90ZM416.58 1.28L416.58 1.28L416.58 1.28Q408.83 1.28 408.83-4.74L408.83-4.74L408.83-4.74Q408.90-6.40 409.41-9.22L409.41-9.22L410.56-15.10L410.56-15.10Q412.29-23.42 412.29-25.28L412.29-25.28L412.29-25.28Q412.29-28.99 410.11-28.99L410.11-28.99L410.11-28.99Q406.46-28.99 404.54-19.46L404.54-19.46L400.77 0L387.90 1.28L394.56-32.70L405.06-33.92L404.03-27.65L404.03-27.65Q407.04-33.92 416.26-33.92L416.26-33.92L416.26-33.92Q420.74-33.92 422.62-32.03L422.62-32.03L422.62-32.03Q424.51-30.14 424.51-25.92L424.51-25.92L424.51-25.92Q424.51-21.95 422.46-12.67L422.46-12.67L422.46-12.67Q421.50-8.51 421.50-6.94L421.50-6.94L421.50-6.94Q421.50-5.38 422.37-4.48L422.37-4.48L422.37-4.48Q423.23-3.58 424.51-3.46L424.51-3.46L424.51-3.46Q423.87-1.28 421.66 0L421.66 0L421.66 0Q419.46 1.28 416.58 1.28Z" fill="#ffd5af"></path></g></g><style>text {
  font-size: 64px;
  font-family: Arial Black;
  dominant-baseline: central;
  text-anchor: middle;
}</style></svg>
